<svg id="Layer_1" data-name="Layer 1" xmlns="http://www.w3.org/2000/svg" viewBox="0 0 30 30"><defs><style>.cls-1{fill:#3c3c3b;}</style></defs><title>MASTER Finastra Icons</title><path class="cls-1" d="M23.48,12.18a2.86,2.86,0,1,0-2.86-2.86A2.86,2.86,0,0,0,23.48,12.18Zm0-4.72a1.86,1.86,0,1,1-1.86,1.86A1.86,1.86,0,0,1,23.48,7.46Z"/><path class="cls-1" d="M18.5,18.52H26a.5.5,0,0,0,.5-.5.5.5,0,0,0-.5-.5H19.08a6.43,6.43,0,0,1,.62-1.78,4.06,4.06,0,0,1,3.83-2.25C27.67,13.49,28,17.82,28,18a.52.52,0,0,0,.53.47A.5.5,0,0,0,29,18a7.26,7.26,0,0,0-.79-2.7,5,5,0,0,0-4.68-2.76,5,5,0,0,0-4.71,2.78A7.54,7.54,0,0,0,18,18a.5.5,0,0,0,.5.54Z"/><path class="cls-1" d="M15.34,20.63a.5.5,0,0,0-.68,0l-7.5,7A.49.49,0,0,0,7,28.2a.49.49,0,0,0,.46.32h15a.5.5,0,0,0,.34-.87ZM8.77,27.52,15,21.68l6.23,5.84Z"/><path class="cls-1" d="M28.5,19H1.5a.5.5,0,0,0-.5.5.5.5,0,0,0,.5.5h27a.5.5,0,0,0,.5-.5A.5.5,0,0,0,28.5,19Z"/><path class="cls-1" d="M6,15.81H6a1.66,1.66,0,0,0,1.19-.5,1.62,1.62,0,0,0,.46-1.21A1.65,1.65,0,0,0,4.83,13a1.62,1.62,0,0,0-.51,1.17A1.64,1.64,0,0,0,6,15.81ZM5.52,13.7A.63.63,0,0,1,6,13.52H6a.65.65,0,0,1,.62.62.62.62,0,0,1-.18.47.61.61,0,0,1-.45.2H6a.63.63,0,0,1-.64-.66A.61.61,0,0,1,5.52,13.7Z"/><path class="cls-1" d="M2.58,15.41l0,0-.22.3-.09.12a.5.5,0,0,0-.06.51,1.17,1.17,0,0,0,0,.11,1.15,1.15,0,0,0,.17.33,4.57,4.57,0,0,0,.42.47,1.38,1.38,0,0,0,1,.51,1.17,1.17,0,0,0,.78-.42v0a.8.8,0,0,0,0,.21.91.91,0,0,0,.85.89l.54,0,.56,0a.91.91,0,0,0,.84-.9v0a1.27,1.27,0,0,0,0-.2l.12.13a1,1,0,0,0,1.33,0,9.25,9.25,0,0,0,.7-.7.94.94,0,0,0,0-1.3,1.59,1.59,0,0,1-.13-.13h.18a.93.93,0,0,0,.94-.85,6.32,6.32,0,0,0,0-1,1,1,0,0,0-1.1-1h0l.07-.08h0l.06,0a1,1,0,0,0,0-1.28c-.14-.17-.28-.32-.42-.46a1.36,1.36,0,0,0-1-.51,1.17,1.17,0,0,0-.78.42v0a.53.53,0,0,0,0-.18.9.9,0,0,0-.85-.92,9.37,9.37,0,0,0-1.06,0,1,1,0,0,0-.88.9v0c0,.06,0,.12,0,.2a.6.6,0,0,0-.12-.14,1,1,0,0,0-1.33,0,8.73,8.73,0,0,0-.68.68.94.94,0,0,0,0,1.34l.11.11H2.4a.94.94,0,0,0-.94.83c0,.21,0,.43,0,.66a1.38,1.38,0,0,0,.33,1.05A1.16,1.16,0,0,0,2.58,15.41ZM2.45,13.6h0c.73,0,.93-.15,1.15-.86a.73.73,0,0,0-.14-.64l-.2-.21L3.2,11.8h0a6,6,0,0,1,.56-.57h0a.94.94,0,0,0,1.3.28.81.81,0,0,0,.49-.88.92.92,0,0,1,0-.15h.79a1,1,0,0,0,.8,1.15A.76.76,0,0,0,8,11.42a1.06,1.06,0,0,1,.19-.19c.07,0,.17.15.24.21a3.7,3.7,0,0,1,.32.35l0,0c-.51.52-.54.75-.2,1.4a.76.76,0,0,0,.51.36,1,1,0,0,0,.3,0h.17v.05a4.65,4.65,0,0,1,0,.74h0c-.74,0-.94.16-1.15.86a.7.7,0,0,0,.13.64l.2.21.09.09a6,6,0,0,1-.56.57h0a.93.93,0,0,0-1.3-.28.8.8,0,0,0-.49.88v.15h-.8a1,1,0,0,0-.8-1.15.74.74,0,0,0-.82.22c-.1.11-.16.16-.19.19a2.76,2.76,0,0,1-.25-.21q-.17-.16-.3-.33l.13-.17,0,0a.66.66,0,0,0,.27-.61,2,2,0,0,0-.27-.69.65.65,0,0,0-.67-.31H2.44c0-.09,0-.26,0-.33A3.59,3.59,0,0,1,2.45,13.6Z"/><path class="cls-1" d="M10.45,7.81h0a1.66,1.66,0,0,0,1.19-.5,1.62,1.62,0,0,0,.46-1.21A1.65,1.65,0,0,0,9.33,5a1.62,1.62,0,0,0-.51,1.17,1.64,1.64,0,0,0,1.63,1.67ZM10,5.7l.05,0h0l0,0h0l0,0h0l.05,0h0l.05,0h.19a.65.65,0,0,1,.62.62.62.62,0,0,1-.18.47.63.63,0,0,1-.47.2.63.63,0,0,1-.64-.66A.61.61,0,0,1,10,5.7Z"/><path class="cls-1" d="M7.08,7.41l0,0-.22.3-.09.12a.5.5,0,0,0-.06.51,1.17,1.17,0,0,0,.05.11,1.15,1.15,0,0,0,.17.33,4.57,4.57,0,0,0,.42.47,1.38,1.38,0,0,0,1,.51,1.17,1.17,0,0,0,.78-.42v0a.8.8,0,0,0,0,.21.91.91,0,0,0,.85.89l.54,0,.56,0a.91.91,0,0,0,.84-.9v0a1.27,1.27,0,0,0,0-.2l.12.13a1,1,0,0,0,1.33,0,9.25,9.25,0,0,0,.7-.7.94.94,0,0,0,0-1.3,1.59,1.59,0,0,1-.13-.13H14A.93.93,0,0,0,15,6.55a6.32,6.32,0,0,0,0-1,1,1,0,0,0-1.1-1h0l.07-.08h0l.06,0a1,1,0,0,0,0-1.28c-.14-.17-.28-.32-.42-.46a1.36,1.36,0,0,0-1-.51,1.17,1.17,0,0,0-.78.42v0a.53.53,0,0,0,0-.18A.9.9,0,0,0,11,1.5,9.37,9.37,0,0,0,10,1.5a1,1,0,0,0-.88.9v0c0,.06,0,.12,0,.2a.6.6,0,0,0-.12-.14,1,1,0,0,0-1.33,0,8.73,8.73,0,0,0-.68.68A.94.94,0,0,0,7,4.49a1.14,1.14,0,0,0,.11.11H6.9A.94.94,0,0,0,6,5.43c0,.21,0,.43,0,.66a1.38,1.38,0,0,0,.33,1A1.16,1.16,0,0,0,7.08,7.41ZM7,5.6H7c.73,0,.93-.15,1.15-.86A.73.73,0,0,0,8,4.1l-.2-.21L7.7,3.8h0a6,6,0,0,1,.56-.57h0a.94.94,0,0,0,1.3.28.81.81,0,0,0,.49-.88.92.92,0,0,1,0-.15c.26,0,.53,0,.79,0a1,1,0,0,0,.8,1.15.76.76,0,0,0,.83-.22,1.06,1.06,0,0,1,.19-.19c.07,0,.17.15.24.21a3.7,3.7,0,0,1,.32.35l0,0c-.51.52-.54.75-.2,1.4a.76.76,0,0,0,.51.36,1,1,0,0,0,.3,0H14v0a4.65,4.65,0,0,1,0,.74h0c-.74,0-.94.16-1.15.86a.7.7,0,0,0,.13.64l.2.21.09.09a6,6,0,0,1-.56.57h0a.93.93,0,0,0-1.3-.28.8.8,0,0,0-.49.88v.15h-.8a1,1,0,0,0-.8-1.15.74.74,0,0,0-.82.22l-.19.19A2.76,2.76,0,0,1,8,8.56q-.16-.17-.3-.33l.13-.17,0-.05a.66.66,0,0,0,.27-.61,2,2,0,0,0-.27-.69.65.65,0,0,0-.67-.31H6.94c0-.09,0-.26,0-.33A3.59,3.59,0,0,1,7,5.6Z"/></svg>