<svg xmlns="http://www.w3.org/2000/svg" xmlns:xlink="http://www.w3.org/1999/xlink" viewBox="0 0 244.5025 166.5439"><defs><style>.cls-1{fill:url(#linear-gradient);}</style><linearGradient id="linear-gradient" x1="37.1442" y1="127.3578" x2="281.6467" y2="127.3578" gradientUnits="userSpaceOnUse"><stop offset="0" stop-color="#c137a2"/><stop offset="1" stop-color="#694ed6"/></linearGradient></defs><title>FusionFABRIC.cloud</title><g id="Text"><path class="cls-1" d="M274.5057,135.661a60.5312,60.5312,0,0,0-20.5942-21.6423,7.0614,7.0614,0,0,1-3.27-5.3812c-2.2974-28.5313-18.3539-52.9826-46.4491-61.4912-24.8282-7.53-46.3835-.8177-63.2147,16.329a77.2343,77.2343,0,0,0-7.4422,8.8392,7.2331,7.2331,0,0,1-6.4176,2.9408c-20.1668-1.4563-41.4668,10.3966-50.8126,28.6a7.1886,7.1886,0,0,1-5.3576,3.86c-12.2344,1.782-24.8966,4.2027-33.8034,11.9722a46.24,46.24,0,0,1,16.7325,3.978c9.6312-4.2392,21.103-3.08,25.7851-3.2315a6.7348,6.7348,0,0,0,6.17-4.59c6.4765-19.3727,27.4652-30.9186,47.0569-26.0875a6.7275,6.7275,0,0,0,7.4538-3.19,66.8919,66.8919,0,0,1,10.2406-13.6585C167.436,55.73,186.2788,55.781,200.2923,60.0293c24.8764,7.5347,37.5233,29.79,37.1377,56.1692a6.7312,6.7312,0,0,0,3.821,6.1676,48.0881,48.0881,0,0,1,21.4935,19.8459c6.0253,10.81,7.055,23.5114,2.7607,33.9712-5.4375,13.2285-17.1609,20.861-32.2066,20.9837a7.001,7.001,0,0,0-7.0671,6.0617A6.7324,6.7324,0,0,0,232.93,210.63c20.6478,0,37.4789-10.9637,45.029-29.3307C283.8831,166.8671,282.6255,150.231,274.5057,135.661Z" transform="translate(-37.1442 -44.0859)"/></g></svg>
