<svg xmlns="http://www.w3.org/2000/svg" viewBox="0 0 1440 163">
    <g>
        <path d="M719.8-40.8C666.5-67.5 602.2-80.8 527-80.8 496.7-80.8 453.1-76.6 409-69.1 358.9-60.7 311.7-48.7 274.3-34.3 243.3-22.4 164.9 10.1 157.6 13 126 25.4 98.6 34.7 65.5 43.6 3.1 60.5-91.2 70.1-168.8 70.1 -228.3 70.1-275.7 66.9-353.6 59.1 -418.2 52.6-427.6 51.7-454.1 50 -474.6 48.7-493.5 48.1-512 48.1 -582.8 48.1-652 59.3-719.8 81.8L-720.5 82 -720.5-81.8 720.5-81.8 720.5-40.5 719.8-40.8Z" transform="translate(720.003981 81.32434)scale(-1 -1)"/>
    </g>
</svg>