<?xml version="1.0" encoding="utf-8"?>
<!-- Generator: Adobe Illustrator 25.0.0, SVG Export Plug-In . SVG Version: 6.00 Build 0)  -->
<svg version="1.1" id="Layer_1" xmlns="http://www.w3.org/2000/svg" xmlns:xlink="http://www.w3.org/1999/xlink" x="0px" y="0px"
	 viewBox="0 0 1440 163" style="enable-background:new 0 0 1440 163;" xml:space="preserve">
<g>
	<path d="M0.2,122.1c53.3,26.7,117.6,35,192.8,35c30.3,0,73.9-2.2,118-9.7c50.1-8.4,97.3-17.4,134.7-31.8
		c31-11.9,109.4-44.4,116.7-47.3c31.6-12.4,59-21.7,92.1-30.6c62.4-16.9,156.7-26.5,234.3-26.5c59.5,0,106.9,3.2,184.8,11
		c64.6,6.5,74,7.4,100.5,9.1c20.5,1.3,39.4,1.9,57.9,1.9c70.8,0,140-11.2,207.8-33.7l0.7-0.2v163.8H-0.5v-41.3L0.2,122.1z"/>
</g>
</svg>
